<svg height="496pt" viewBox="0 -12 496 496" width="496pt" xmlns="http://www.w3.org/2000/svg"><path d="m24 384h448v80h-448zm0 0" fill="#dfb28b"/><path d="m472 352v32h-448v-32zm0 0" fill="#fcd770"/><path d="m488 320v32h-480v-32zm0 0" fill="#d3a06c"/><path d="m199.199219 204.71875 46.5625 14.480469h2.238281v60.800781c0 4.398438 3.601562 8 8 8h16v32h-96l-8-56 8-24 .71875-1.199219 15.28125 9.199219zm0 0" fill="#e6e9ed"/><path d="m128 240 8 24-8 56h-96v-71.519531c0-14.480469 9.679688-27.121094 23.601562-30.878907l49.117188-13.441406 7.28125 43.839844 15.28125-9.199219zm0 0" fill="#e6e9ed"/><path d="m168 264 8 56h-48l8-56zm0 0" fill="#ff826e"/><path d="m176.71875 238.800781-.71875 1.199219-8 24h-32l-8-24-.71875-1.199219 24.71875-14.800781zm0 0" fill="#ff826e"/><path d="m199.199219 204.71875-7.199219 43.28125-15.28125-9.199219-24.71875-14.800781 32-24zm0 0" fill="#aab2bd"/><path d="m152 224-24.71875 14.800781-15.28125 9.199219-7.28125-43.839844 15.28125-4.160156zm0 0" fill="#aab2bd"/><path d="m184 177.121094v22.878906l-32 24-32-24v-22.878906zm0 0" fill="#f0d0b4"/><path d="m248 88v32l-18.558594 3.679688c-1.921875 7.519531-4.882812 14.640624-8.722656 21.121093l10.480469 15.757813-22.640625 22.640625-15.757813-10.480469c-2.800781 1.679688-5.761719 3.121094-8.800781 4.402344h-64c-3.039062-1.28125-6-2.722656-8.800781-4.402344l-15.757813 10.480469-22.640625-22.640625 10.480469-15.757813c-3.839844-6.480469-6.800781-13.601562-8.722656-21.121093l-18.558594-3.679688v-32l18.558594-3.679688c1.921875-7.519531 4.882812-14.640624 8.722656-21.121093l-10.480469-15.757813 22.640625-22.640625 15.757813 10.480469c6.480469-3.839844 13.601562-6.800781 21.121093-8.722656l3.679688-18.558594h32l3.679688 18.558594c7.519531 1.921875 14.640624 4.882812 21.121093 8.722656l15.757813-10.480469 22.640625 22.640625-10.480469 15.757813c3.839844 6.480469 6.800781 13.601562 8.722656 21.121093zm-48 16c0-26.480469-21.519531-48-48-48s-48 21.519531-48 48 21.519531 48 48 48 48-21.519531 48-48zm0 0" fill="#fcd770"/><path d="m440 152v128c0 4.398438-3.601562 8-8 8h-68.960938l-9.839843-64.078125c-.71875-4.5625-4.558594-7.921875-9.199219-7.921875s-8.480469 3.359375-9.199219 7.921875l-9.839843 64.078125h-68.960938c-4.398438 0-8-3.601562-8-8v-128c0-4.398438 3.601562-8 8-8h176c4.398438 0 8 3.601562 8 8zm0 0" fill="#ccd1d9"/><path d="m363.039062 288 4.960938 32h-48l4.960938-32 9.839843-64.078125c.71875-4.5625 4.558594-7.921875 9.199219-7.921875s8.480469 3.359375 9.199219 7.921875zm0 0" fill="#969faa"/><path d="m496 120v-16h-16v-80h-16v80h-16v-56h-16v56h-16v-32h-16v32h-48v48h80v128h-62.054688l-8.816406-57.3125c-1.3125-8.519531-8.519531-14.6875-17.128906-14.6875s-15.816406 6.167969-17.128906 14.6875l-8.816406 57.3125h-62.054688v-128h80v-16h-80c-8.824219 0-16 7.175781-16 16v7.351562l-9.9375-14.902343c2.304688-4.441407 4.226562-9.074219 5.746094-13.847657l20.191406-4.050781v-45.109375l-20.191406-4.050781c-1.511719-4.78125-3.441406-9.414063-5.746094-13.847656l11.433594-17.144531-31.894532-31.894532-17.144531 11.433594c-4.441406-2.304688-9.074219-4.226562-13.847656-5.746094l-4.058594-20.191406h-45.109375l-4.050781 20.191406c-4.78125 1.511719-9.414063 3.441406-13.847656 5.746094l-17.144531-11.433594-31.894532 31.902344 11.433594 17.144531c-2.304688 4.441407-4.226562 9.074219-5.746094 13.847657l-20.191406 4.050781v45.109375l20.191406 4.050781c1.511719 4.78125 3.441406 9.414063 5.746094 13.847656l-11.433594 17.144531 31.894532 31.894532 17.175781-11.457032c.144531.074219.273437.136719.417969.199219v11.648438l-58.519532 15.960937c-17.351562 4.738282-29.472656 20.609375-29.472656 38.601563v63.550781h-24v48h16v112h464v-112h16v-48h-121.136719l-2.464843-16h59.601562c8.824219 0 16-7.175781 16-16v-128c0-8.824219-7.175781-16-16-16h-64v-16zm-182.863281 192h-33.136719v-16h35.601562zm-49.136719-16v16h-81.054688l-6.753906-47.273438 4.6875-14.070312 17.082032 10.246094 7.632812-45.796875 34.40625 10.710937v54.183594c0 8.824219 7.175781 16 16 16zm-145.664062-87.257812 19.34375 14.515624-19.71875 11.832032-4.183594-25.105469zm33.664062 24.59375 14.824219 8.894531-4.59375 13.769531h-20.46875l-4.59375-13.769531zm33.519531-24.480469 4.648438 1.449219-4.136719 24.792968-19.71875-11.832031zm-42.574219 63.144531h18.117188l5.714844 40h-29.546875zm97.054688-108.910156v45.964844l-48-14.941407v-11.875c.144531-.070312.273438-.132812.414062-.199219l17.179688 11.457032zm-129.070312.15625-14.480469 9.648437-13.351563-13.351562 9.644532-14.488281-2.574219-4.328126c-3.511719-5.894531-6.167969-12.285156-7.871094-18.992187l-1.242187-4.886719-17.054688-3.398437v-18.890625l17.054688-3.40625 1.242187-4.886719c1.710937-6.707031 4.359375-13.097656 7.871094-18.992187l2.574219-4.328126-9.644532-14.488281 13.351563-13.351562 14.488281 9.648437 4.328125-2.578125c5.894531-3.511719 12.285156-6.167969 18.992187-7.871093l4.886719-1.242188 3.40625-17.0625h18.890625l3.40625 17.054688 4.886719 1.242187c6.707031 1.710937 13.097656 4.359375 18.992187 7.871094l4.328126 2.574219 14.488281-9.644532 13.351562 13.351563-9.648437 14.488281 2.578125 4.328125c3.511719 5.894531 6.167969 12.285156 7.871093 18.992187l1.242188 4.886719 17.0625 3.40625v18.890625l-17.054688 3.40625-1.242187 4.886719c-1.710937 6.707031-4.359375 13.097656-7.871094 18.992187l-2.574219 4.328126 9.644532 14.488281-13.351563 13.351562-14.480469-9.648437-4.335937 2.578125c-2.175781 1.296875-4.703125 2.558593-7.941406 3.984375l-4.792969 2.101562v24.089844l-24 18-24-18v-24.089844l-4.792969-2.101562c-3.238281-1.425782-5.765625-2.6875-7.941406-3.984375zm-70.929688 85.203125c0-10.800781 7.273438-20.320313 17.679688-23.160157l40.585937-11.074218 7.773437 46.6875 17.082032-10.246094 4.6875 14.070312-6.753906 47.273438h-81.054688zm424 127.550781h-64v16h64v64h-432v-64h352v-16h-352v-16h432zm16-32h-464v-16h464zm-150.671875-32 13.359375-86.871094c.199219-1.28125 2.425781-1.28125 2.625 0l13.359375 86.871094zm0 0"/><path d="m152 64c22.054688 0 40 17.945312 40 40 0 8.320312-2.566406 16.320312-7.425781 23.144531l13.035156 9.28125c6.796875-9.554687 10.390625-20.761719 10.390625-32.425781 0-30.871094-25.128906-56-56-56-11.664062 0-22.871094 3.59375-32.425781 10.390625l9.28125 13.035156c6.824219-4.859375 14.824219-7.425781 23.144531-7.425781zm0 0"/><path d="m184.425781 149.609375-9.28125-13.035156c-6.824219 4.859375-14.824219 7.425781-23.144531 7.425781-22.054688 0-40-17.945312-40-40 0-8.320312 2.566406-16.320312 7.425781-23.144531l-13.035156-9.28125c-6.796875 9.554687-10.390625 20.761719-10.390625 32.425781 0 30.871094 25.128906 56 56 56 11.664062 0 22.871094-3.59375 32.425781-10.390625zm0 0"/><path d="m48 408h16v16h-16zm0 0"/><path d="m80 408h16v16h-16zm0 0"/><path d="m112 408h16v16h-16zm0 0"/></svg>